<svg width="1440" height="695" viewBox="0 0 1440 695" fill="none" xmlns="http://www.w3.org/2000/svg" preserveAspectRatio="xMinYMin meet">
  <rect width="1440" height="693" fill="#FFFDFD" fill-opacity="0.88"/>
  <path d="M392.5 492.5C282.9 410.5 152.667 507.833 69.5 568L-126 656.5L1461 678.5C1516.5 641.667 1532 640.5 1435 544C1325.8 435.367 1216.5 600 1074.5 544C918.401 482.44 744.961 504.661 676 522C588.5 544 529.5 595 392.5 492.5Z" fill="#FFE699"/>
  <path d="M289 505C102.6 389.4 0.333334 553.167 -27.5 649.5L-3 694.5H1552.5V557C1311 663 1248.5 534.5 1177 545C1105.5 555.5 994.5 465 850.5 534.5C706.5 604 522 649.5 289 505Z" fill="#FCAE7C"/>
</svg>
